<svg xmlns="http://www.w3.org/2000/svg" viewBox="0 0 34.97 45.7"><defs><style>.cls-1{fill:#979ca0;}</style></defs><title>Accessibility Symbol (4)</title><g id="Layer_2" data-name="Layer 2"><g id="Accessibility_Symbol" data-name="Accessibility Symbol"><g id="Accessibility_Symbol-2" data-name="Accessibility Symbol"><path class="cls-1" d="M10,8.84A4.42,4.42,0,1,0,5.48,4.47,4.42,4.42,0,0,0,10,8.84"/><path class="cls-1" d="M34.69,38.29,28,25.16a1.6,1.6,0,0,0-1.43-.88H16.38l-.72-3.53h7a2,2,0,0,0,0-4H14.86l-1-4.81a2.55,2.55,0,1,0-5,1L12,28.14a1.6,1.6,0,0,0,1.57,1.29h9.93a1.58,1.58,0,0,1,1.43.87l5.24,10.29A2.58,2.58,0,0,0,32.44,42a2.5,2.5,0,0,0,1.12-.27A2.55,2.55,0,0,0,34.69,38.29Z"/><path class="cls-1" d="M24.81,33.09a10.52,10.52,0,1,1-15.47-11l-.81-4A14.43,14.43,0,1,0,27.27,37.89Z"/></g></g></g></svg>